<?xml version="1.0" encoding="UTF-8" standalone="no"?>
<svg
   xmlns:dc="http://purl.org/dc/elements/1.1/"
   xmlns:cc="http://creativecommons.org/ns#"
   xmlns:rdf="http://www.w3.org/1999/02/22-rdf-syntax-ns#"
   xmlns:svg="http://www.w3.org/2000/svg"
   xmlns="http://www.w3.org/2000/svg"
   viewBox="0 0 136 153.33333"
   height="153.33333"
   width="136"
   xml:space="preserve"
   id="svg2"
   version="1.1"><metadata
     id="metadata8"><rdf:RDF><cc:Work
         rdf:about=""><dc:format>image/svg+xml</dc:format><dc:type
           rdf:resource="http://purl.org/dc/dcmitype/StillImage" /></cc:Work></rdf:RDF></metadata><defs
     id="defs6"><clipPath
       id="clipPath18"
       clipPathUnits="userSpaceOnUse"><path
         id="path16"
         d="M 0,115 H 102 V 0 H 0 Z" /></clipPath><clipPath
       id="clipPath30"
       clipPathUnits="userSpaceOnUse"><path
         id="path28"
         d="M 15,92.375 V 49.994 C 15,41.08 18.347,33.62 24.68,28.428 v 0 C 30.474,23.679 48.885,15.601 51,14.681 v 0 c 2.114,0.92 20.527,8.998 26.32,13.747 v 0 C 83.653,33.62 87,41.08 87,49.994 v 0 42.381 c -10.002,5.302 -22.114,7.989 -36,7.989 v 0 c -13.887,0 -25.998,-2.687 -36,-7.989" /></clipPath><radialGradient
       id="radialGradient42"
       spreadMethod="pad"
       gradientTransform="matrix(0,-119.60791,-59.804012,0,26.000015,85.564873)"
       gradientUnits="userSpaceOnUse"
       r="1"
       cy="0"
       cx="0"
       fy="0"
       fx="0"><stop
         id="stop36"
         offset="0"
         style="stop-opacity:1;stop-color:#ffdc00" /><stop
         id="stop38"
         offset="0.35"
         style="stop-opacity:1;stop-color:#ffbe00" /><stop
         id="stop40"
         offset="1"
         style="stop-opacity:1;stop-color:#c86e14" /></radialGradient><clipPath
       id="clipPath52"
       clipPathUnits="userSpaceOnUse"><path
         id="path50"
         d="M 0,115 H 102 V 0 H 0 Z" /></clipPath><clipPath
       id="clipPath64"
       clipPathUnits="userSpaceOnUse"><path
         id="path62"
         d="M 18.308,74.236 V 49.992 c 0,-7.894 2.92,-14.489 8.467,-19.009 v 0 C 31.675,26.991 46.749,20.17 51,18.294 v 0 c 4.196,1.848 19.233,8.584 24.217,12.689 v 0 c 5.584,4.599 8.475,11.04 8.475,19.009 v 0 41.491 c -4.446,0.413 -9.064,0.685 -13.769,0.685 v 0 c -17.448,0 -36.152,-3.75 -51.615,-17.932 M 74.956,51.169 c -0.047,1.966 -1.158,3.034 -3.912,4.653 v 0 c -5.165,3.029 -6.093,5.522 -6.102,8.853 v 0 c -0.027,5.061 4.283,8.043 8.404,8.162 v 0 c 3.439,0.106 5.771,-1.187 6.872,-2.033 v 0 -5.447 c -1.305,1.34 -3.422,2.553 -5.611,2.574 v 0 c -1.774,0.015 -3.622,-0.765 -3.683,-2.992 v 0 c -0.062,-2.28 1.783,-3.18 4.12,-4.55 v 0 c 5.231,-3.076 6.243,-5.84 6.123,-9.493 v 0 c -0.119,-4.005 -2.88,-8.379 -9.068,-8.379 v 0 c -2.476,0 -4.924,0.774 -6.886,1.945 v 0 5.766 c 1.599,-1.425 3.99,-2.533 5.987,-2.549 v 0 c 0.009,0 0.017,0 0.026,0 v 0 c 2.283,0 3.783,1.314 3.73,3.49 M 43.495,70.61 c 2.272,1.466 5.027,2.227 8.443,2.227 v 0 c 7.476,0 11.584,-5.671 11.584,-14.801 v 0 c 0,-9.151 -3.99,-15.412 -10.942,-15.412 v 0 c -1.285,0 -2.193,0.171 -2.819,0.356 v 0 -13.189 H 43.495 Z M 34.029,48.596 v 23.607 h 6.252 V 45.031 c -2.392,-1.624 -5.603,-2.514 -9.436,-2.514 v 0 c -6.198,0 -9.34,3.362 -9.34,9.999 v 0 19.687 h 6.26 V 52.239 c 0,-1.779 0.43,-4.408 3.301,-4.408 v 0 c 1.271,0 2.282,0.297 2.963,0.765 M 49.761,67.343 V 48.099 c 0.449,-0.168 1.184,-0.377 2.033,-0.377 v 0 c 3.606,0 5.326,3.307 5.326,10.154 v 0 c 0,7.016 -1.505,9.918 -5.14,9.918 v 0 c -0.849,0 -1.71,-0.2 -2.219,-0.451" /></clipPath><radialGradient
       id="radialGradient78"
       spreadMethod="pad"
       gradientTransform="matrix(0,-118.6833,-59.341652,0,26.032972,85.46946)"
       gradientUnits="userSpaceOnUse"
       r="1"
       cy="0"
       cx="0"
       fy="0"
       fx="0"><stop
         id="stop70"
         offset="0"
         style="stop-opacity:1;stop-color:#5c3333" /><stop
         id="stop72"
         offset="0.35"
         style="stop-opacity:1;stop-color:#471a1a" /><stop
         id="stop74"
         offset="0.85"
         style="stop-opacity:1;stop-color:#330000" /><stop
         id="stop76"
         offset="1"
         style="stop-opacity:1;stop-color:#330000" /></radialGradient><clipPath
       id="clipPath88"
       clipPathUnits="userSpaceOnUse"><path
         id="path86"
         d="m 18.308,49.992 c 0,-7.894 2.92,-14.489 8.467,-19.009 v 0 C 31.675,26.991 46.749,20.17 51,18.294 v 0 0.492 c -3.529,1.561 -18.982,8.506 -23.941,12.546 v 0 c -5.43,4.425 -8.3,10.878 -8.3,18.66 v 0 z" /></clipPath><linearGradient
       id="linearGradient102"
       spreadMethod="pad"
       gradientTransform="matrix(-32.756027,31.632132,31.632132,32.756027,48.437694,15.640904)"
       gradientUnits="userSpaceOnUse"
       y2="0"
       x2="1"
       y1="0"
       x1="0"><stop
         id="stop94"
         offset="0"
         style="stop-opacity:1;stop-color:#b76e11" /><stop
         id="stop96"
         offset="0.00455729"
         style="stop-opacity:1;stop-color:#b76e11" /><stop
         id="stop98"
         offset="0.20455422"
         style="stop-opacity:1;stop-color:#cc7b16" /><stop
         id="stop100"
         offset="1"
         style="stop-opacity:1;stop-color:#cc7b16" /></linearGradient><clipPath
       id="clipPath112"
       clipPathUnits="userSpaceOnUse"><path
         id="path110"
         d="m 83.242,49.992 c 0,-7.84 -2.796,-14.119 -8.311,-18.661 v 0 C 70.135,27.382 55.638,20.832 51,18.786 v 0 -0.492 c 4.196,1.848 19.233,8.584 24.217,12.689 v 0 c 5.584,4.599 8.475,11.04 8.475,19.009 v 0 z" /></clipPath><linearGradient
       id="linearGradient122"
       spreadMethod="pad"
       gradientTransform="matrix(32.755981,31.632086,31.632086,-32.755981,53.558639,15.644746)"
       gradientUnits="userSpaceOnUse"
       y2="0"
       x2="1"
       y1="0"
       x1="0"><stop
         id="stop118"
         offset="0"
         style="stop-opacity:1;stop-color:#ffc20e" /><stop
         id="stop120"
         offset="1"
         style="stop-opacity:1;stop-color:#d99814" /></linearGradient><clipPath
       id="clipPath132"
       clipPathUnits="userSpaceOnUse"><path
         id="path130"
         d="m 18.308,74.236 0.451,-0.199 c 13.048,11.897 29.786,17.681 51.164,17.681 v 0 c 4.174,0 8.535,-0.211 13.319,-0.645 v 0 l 0.45,0.41 c -4.446,0.413 -9.064,0.685 -13.769,0.685 v 0 c -17.448,0 -36.152,-3.75 -51.615,-17.932" /></clipPath><linearGradient
       id="linearGradient144"
       spreadMethod="pad"
       gradientTransform="matrix(63.668907,22.171862,22.171862,-63.668907,18.334476,74.159828)"
       gradientUnits="userSpaceOnUse"
       y2="0"
       x2="1"
       y1="0"
       x1="0"><stop
         id="stop138"
         offset="0"
         style="stop-opacity:1;stop-color:#e49f15" /><stop
         id="stop140"
         offset="0.975"
         style="stop-opacity:1;stop-color:#8f4a02" /><stop
         id="stop142"
         offset="1"
         style="stop-opacity:1;stop-color:#8f4a02" /></linearGradient><clipPath
       id="clipPath154"
       clipPathUnits="userSpaceOnUse"><path
         id="path152"
         d="m 56.67,57.876 c 0,-5.534 -1.091,-9.704 -4.876,-9.704 v 0 -0.45 c 3.606,0 5.326,3.307 5.326,10.154 v 0 z" /></clipPath><linearGradient
       id="linearGradient168"
       spreadMethod="pad"
       gradientTransform="matrix(5.1512904,10.242201,10.242201,-5.1512904,52.800846,47.215267)"
       gradientUnits="userSpaceOnUse"
       y2="0"
       x2="1"
       y1="0"
       x1="0"><stop
         id="stop160"
         offset="0"
         style="stop-opacity:1;stop-color:#ffcb05" /><stop
         id="stop162"
         offset="0.05"
         style="stop-opacity:1;stop-color:#ffcb05" /><stop
         id="stop164"
         offset="0.95"
         style="stop-opacity:1;stop-color:#b76e11" /><stop
         id="stop166"
         offset="1"
         style="stop-opacity:1;stop-color:#b76e11" /></linearGradient><clipPath
       id="clipPath178"
       clipPathUnits="userSpaceOnUse"><path
         id="path176"
         d="m 49.761,48.099 c 0.449,-0.168 1.184,-0.377 2.033,-0.377 v 0 0.45 c -0.616,0 -1.168,0.119 -1.583,0.248 v 0 z" /></clipPath><linearGradient
       id="linearGradient192"
       spreadMethod="pad"
       gradientTransform="matrix(-2.0484834,0.2515221,0.2515221,2.0484834,51.822575,47.950375)"
       gradientUnits="userSpaceOnUse"
       y2="0"
       x2="1"
       y1="0"
       x1="0"><stop
         id="stop184"
         offset="0"
         style="stop-opacity:1;stop-color:#ffcb05" /><stop
         id="stop186"
         offset="0.05"
         style="stop-opacity:1;stop-color:#ffcb05" /><stop
         id="stop188"
         offset="0.95"
         style="stop-opacity:1;stop-color:#f0af13" /><stop
         id="stop190"
         offset="1"
         style="stop-opacity:1;stop-color:#f0af13" /></linearGradient><clipPath
       id="clipPath202"
       clipPathUnits="userSpaceOnUse"><path
         id="path200"
         d="m 49.761,67.343 0.45,-0.297 c 0.437,0.161 1.087,0.298 1.769,0.298 v 0 0.45 c -0.849,0 -1.71,-0.2 -2.219,-0.451" /></clipPath><linearGradient
       id="linearGradient216"
       spreadMethod="pad"
       gradientTransform="matrix(2.186089,0.5735098,0.5735098,-2.186089,49.82431,67.103798)"
       gradientUnits="userSpaceOnUse"
       y2="0"
       x2="1"
       y1="0"
       x1="0"><stop
         id="stop208"
         offset="0"
         style="stop-opacity:1;stop-color:#a25c0a" /><stop
         id="stop210"
         offset="0.05"
         style="stop-opacity:1;stop-color:#a25c0a" /><stop
         id="stop212"
         offset="0.95"
         style="stop-opacity:1;stop-color:#8f4a02" /><stop
         id="stop214"
         offset="1"
         style="stop-opacity:1;stop-color:#8f4a02" /></linearGradient><clipPath
       id="clipPath226"
       clipPathUnits="userSpaceOnUse"><path
         id="path224"
         d="m 51.98,67.344 c 3.693,0 4.69,-3.451 4.69,-9.468 v 0 h 0.45 c 0,7.016 -1.505,9.918 -5.14,9.918 v 0 z" /></clipPath><linearGradient
       id="linearGradient240"
       spreadMethod="pad"
       gradientTransform="matrix(-5.0540938,9.962163,9.962163,5.0540938,57.992634,58.318554)"
       gradientUnits="userSpaceOnUse"
       y2="0"
       x2="1"
       y1="0"
       x1="0"><stop
         id="stop232"
         offset="0"
         style="stop-opacity:1;stop-color:#b76e11" /><stop
         id="stop234"
         offset="0.05"
         style="stop-opacity:1;stop-color:#b76e11" /><stop
         id="stop236"
         offset="0.95"
         style="stop-opacity:1;stop-color:#8f4a02" /><stop
         id="stop238"
         offset="1"
         style="stop-opacity:1;stop-color:#8f4a02" /></linearGradient><clipPath
       id="clipPath250"
       clipPathUnits="userSpaceOnUse"><path
         id="path248"
         d="m 64.492,64.673 0.45,0.002 c -0.027,5.061 4.283,8.043 8.404,8.162 v 0 l -0.014,0.451 c -4.554,-0.133 -8.867,-3.466 -8.84,-8.615" /></clipPath><linearGradient
       id="linearGradient264"
       spreadMethod="pad"
       gradientTransform="matrix(-9.1515598,-8.2690687,-8.2690687,9.1515598,72.812614,73.862442)"
       gradientUnits="userSpaceOnUse"
       y2="0"
       x2="1"
       y1="0"
       x1="0"><stop
         id="stop256"
         offset="0"
         style="stop-opacity:1;stop-color:#ffcb05" /><stop
         id="stop258"
         offset="0.05"
         style="stop-opacity:1;stop-color:#ffcb05" /><stop
         id="stop260"
         offset="0.95"
         style="stop-opacity:1;stop-color:#d78817" /><stop
         id="stop262"
         offset="1"
         style="stop-opacity:1;stop-color:#d78817" /></linearGradient><clipPath
       id="clipPath274"
       clipPathUnits="userSpaceOnUse"><path
         id="path272"
         d="m 70.924,64.939 0.45,-0.013 c 0.016,0.602 0.294,2.555 3.172,2.555 v 0 l 0.061,0.45 c -0.017,0 -0.034,0 -0.051,0 v 0 c -1.758,0 -3.572,-0.786 -3.632,-2.992" /></clipPath><linearGradient
       id="linearGradient288"
       spreadMethod="pad"
       gradientTransform="matrix(3.5799179,3.1119752,3.1119752,-3.5799179,70.746689,65.142204)"
       gradientUnits="userSpaceOnUse"
       y2="0"
       x2="1"
       y1="0"
       x1="0"><stop
         id="stop280"
         offset="0"
         style="stop-opacity:1;stop-color:#ad680e" /><stop
         id="stop282"
         offset="0.05"
         style="stop-opacity:1;stop-color:#ad680e" /><stop
         id="stop284"
         offset="0.95"
         style="stop-opacity:1;stop-color:#8f4a02" /><stop
         id="stop286"
         offset="1"
         style="stop-opacity:1;stop-color:#8f4a02" /></linearGradient><clipPath
       id="clipPath298"
       clipPathUnits="userSpaceOnUse"><path
         id="path296"
         d="m 74.546,67.481 c 2.589,0 4.802,-1.684 6.122,-3.232 v 0 l -0.45,1.108 c -1.305,1.34 -3.422,2.553 -5.611,2.574 v 0 z" /></clipPath><linearGradient
       id="linearGradient310"
       spreadMethod="pad"
       gradientTransform="matrix(-6.2761407,3.2671521,3.2671521,6.2761407,80.948654,64.788658)"
       gradientUnits="userSpaceOnUse"
       y2="0"
       x2="1"
       y1="0"
       x1="0"><stop
         id="stop304"
         offset="0"
         style="stop-opacity:1;stop-color:#d89016" /><stop
         id="stop306"
         offset="0.95"
         style="stop-opacity:1;stop-color:#8f4a02" /><stop
         id="stop308"
         offset="1"
         style="stop-opacity:1;stop-color:#8f4a02" /></linearGradient><clipPath
       id="clipPath320"
       clipPathUnits="userSpaceOnUse"><path
         id="path318"
         d="m 73.332,73.288 0.014,-0.451 c 3.439,0.106 5.771,-1.187 6.872,-2.033 v 0 l 0.45,0.221 c -0.944,0.766 -3.347,2.269 -6.943,2.269 v 0 c -0.129,0 -0.261,-0.002 -0.393,-0.006" /></clipPath><linearGradient
       id="linearGradient334"
       spreadMethod="pad"
       gradientTransform="matrix(7.3045878,-2.3593175,-2.3593175,-7.3045878,73.377907,73.429092)"
       gradientUnits="userSpaceOnUse"
       y2="0"
       x2="1"
       y1="0"
       x1="0"><stop
         id="stop326"
         offset="0"
         style="stop-opacity:1;stop-color:#ffcb05" /><stop
         id="stop328"
         offset="0.05"
         style="stop-opacity:1;stop-color:#ffcb05" /><stop
         id="stop330"
         offset="0.95"
         style="stop-opacity:1;stop-color:#ed9d19" /><stop
         id="stop332"
         offset="1"
         style="stop-opacity:1;stop-color:#ed9d19" /></linearGradient><clipPath
       id="clipPath344"
       clipPathUnits="userSpaceOnUse"><path
         id="path342"
         d="m 72.099,42.517 v -0.451 c 5.676,0 9.367,3.781 9.518,8.815 v 0 l -0.45,0.015 c -0.119,-4.005 -2.88,-8.379 -9.068,-8.379" /></clipPath><linearGradient
       id="linearGradient358"
       spreadMethod="pad"
       gradientTransform="matrix(-9.265132,-9.0730886,-9.0730886,9.265132,82.294029,50.189762)"
       gradientUnits="userSpaceOnUse"
       y2="0"
       x2="1"
       y1="0"
       x1="0"><stop
         id="stop350"
         offset="0"
         style="stop-opacity:1;stop-color:#995606" /><stop
         id="stop352"
         offset="0.05"
         style="stop-opacity:1;stop-color:#995606" /><stop
         id="stop354"
         offset="0.95"
         style="stop-opacity:1;stop-color:#8f4a02" /><stop
         id="stop356"
         offset="1"
         style="stop-opacity:1;stop-color:#8f4a02" /></linearGradient><clipPath
       id="clipPath368"
       clipPathUnits="userSpaceOnUse"><path
         id="path366"
         d="m 64.764,44.206 c 2.241,-1.338 4.645,-2.14 7.335,-2.14 v 0 0.451 c -2.476,0 -4.924,0.774 -6.886,1.945 v 0 z" /></clipPath><linearGradient
       id="linearGradient380"
       spreadMethod="pad"
       gradientTransform="matrix(7.3410635,-2.1188893,-2.1188893,-7.3410635,64.745705,44.143841)"
       gradientUnits="userSpaceOnUse"
       y2="0"
       x2="1"
       y1="0"
       x1="0"><stop
         id="stop374"
         offset="0"
         style="stop-opacity:1;stop-color:#a25c0a" /><stop
         id="stop376"
         offset="0.95"
         style="stop-opacity:1;stop-color:#8f4a02" /><stop
         id="stop378"
         offset="1"
         style="stop-opacity:1;stop-color:#8f4a02" /></linearGradient><clipPath
       id="clipPath390"
       clipPathUnits="userSpaceOnUse"><path
         id="path388"
         d="m 65.213,50.228 c 1.599,-1.425 3.99,-2.533 5.987,-2.549 v 0 l 0.004,0.451 c -2.229,0.016 -4.806,1.451 -6.44,3.102 v 0 z" /></clipPath><linearGradient
       id="linearGradient402"
       spreadMethod="pad"
       gradientTransform="matrix(-6.6044102,3.2069294,3.2069294,6.6044102,71.133789,47.542393)"
       gradientUnits="userSpaceOnUse"
       y2="0"
       x2="1"
       y1="0"
       x1="0"><stop
         id="stop396"
         offset="0"
         style="stop-opacity:1;stop-color:#ffc20e" /><stop
         id="stop398"
         offset="0.05"
         style="stop-opacity:1;stop-color:#ffc20e" /><stop
         id="stop400"
         offset="1"
         style="stop-opacity:1;stop-color:#f0af13" /></linearGradient><clipPath
       id="clipPath412"
       clipPathUnits="userSpaceOnUse"><path
         id="path410"
         d="M 74.506,51.158 C 74.555,49.16 73.158,48.116 71.204,48.13 v 0 L 71.2,47.679 c 2.298,-0.01 3.81,1.306 3.756,3.49 v 0 z" /></clipPath><linearGradient
       id="linearGradient426"
       spreadMethod="pad"
       gradientTransform="matrix(3.7733538,3.4697764,3.4697764,-3.7733538,71.491554,47.363026)"
       gradientUnits="userSpaceOnUse"
       y2="0"
       x2="1"
       y1="0"
       x1="0"><stop
         id="stop418"
         offset="0"
         style="stop-opacity:1;stop-color:#ffcb05" /><stop
         id="stop420"
         offset="0.05"
         style="stop-opacity:1;stop-color:#ffcb05" /><stop
         id="stop422"
         offset="0.95"
         style="stop-opacity:1;stop-color:#d99814" /><stop
         id="stop424"
         offset="1"
         style="stop-opacity:1;stop-color:#d99814" /></linearGradient><clipPath
       id="clipPath436"
       clipPathUnits="userSpaceOnUse"><path
         id="path434"
         d="m 64.492,64.673 c 0.01,-3.508 1.048,-6.145 6.324,-9.239 v 0 c 2.823,-1.659 3.651,-2.618 3.69,-4.276 v 0 l 0.45,0.011 c -0.047,1.966 -1.158,3.034 -3.912,4.653 v 0 c -5.165,3.029 -6.093,5.522 -6.102,8.853 v 0 z" /></clipPath><linearGradient
       id="linearGradient450"
       spreadMethod="pad"
       gradientTransform="matrix(9.7365875,-14.009114,-14.009114,-9.7365875,64.402824,64.611023)"
       gradientUnits="userSpaceOnUse"
       y2="0"
       x2="1"
       y1="0"
       x1="0"><stop
         id="stop442"
         offset="0"
         style="stop-opacity:1;stop-color:#d78817" /><stop
         id="stop444"
         offset="0.4"
         style="stop-opacity:1;stop-color:#a25c0a" /><stop
         id="stop446"
         offset="0.6"
         style="stop-opacity:1;stop-color:#a25c0a" /><stop
         id="stop448"
         offset="1"
         style="stop-opacity:1;stop-color:#d99814" /></linearGradient><clipPath
       id="clipPath460"
       clipPathUnits="userSpaceOnUse"><path
         id="path458"
         d="m 75.044,60.389 c 5.231,-3.076 6.243,-5.84 6.123,-9.493 v 0 l 0.45,-0.015 c 0.123,3.735 -0.896,6.693 -6.346,9.896 v 0 c -2.212,1.343 -3.953,2.075 -3.897,4.149 v 0 l -0.45,0.013 c -0.062,-2.28 1.783,-3.18 4.12,-4.55" /></clipPath><linearGradient
       id="linearGradient476"
       spreadMethod="pad"
       gradientTransform="matrix(10.42983,-14.250554,-14.250554,-10.42983,71.669014,65.484131)"
       gradientUnits="userSpaceOnUse"
       y2="0"
       x2="1"
       y1="0"
       x1="0"><stop
         id="stop466"
         offset="0"
         style="stop-opacity:1;stop-color:#ad680e" /><stop
         id="stop468"
         offset="0.4"
         style="stop-opacity:1;stop-color:#f1b80e" /><stop
         id="stop470"
         offset="0.6"
         style="stop-opacity:1;stop-color:#f1b80e" /><stop
         id="stop472"
         offset="0.95"
         style="stop-opacity:1;stop-color:#995606" /><stop
         id="stop474"
         offset="1"
         style="stop-opacity:1;stop-color:#995606" /></linearGradient><clipPath
       id="clipPath486"
       clipPathUnits="userSpaceOnUse"><path
         id="path484"
         d="M 0,115 H 102 V 0 H 0 Z" /></clipPath><clipPath
       id="clipPath498"
       clipPathUnits="userSpaceOnUse"><path
         id="path496"
         d="m 50.211,42.403 c 0.708,-0.152 1.502,-0.229 2.369,-0.229 v 0 0.45 c -1.285,0 -2.193,0.171 -2.819,0.356 v 0 z" /></clipPath><linearGradient
       id="linearGradient512"
       spreadMethod="pad"
       gradientTransform="matrix(2.8741434,-0.4449409,-0.4449409,-2.8741434,49.728001,42.763741)"
       gradientUnits="userSpaceOnUse"
       y2="0"
       x2="1"
       y1="0"
       x1="0"><stop
         id="stop504"
         offset="0"
         style="stop-opacity:1;stop-color:#985006" /><stop
         id="stop506"
         offset="0.05"
         style="stop-opacity:1;stop-color:#985006" /><stop
         id="stop508"
         offset="0.95"
         style="stop-opacity:1;stop-color:#8f4a02" /><stop
         id="stop510"
         offset="1"
         style="stop-opacity:1;stop-color:#8f4a02" /></linearGradient><clipPath
       id="clipPath522"
       clipPathUnits="userSpaceOnUse"><path
         id="path520"
         d="m 63.522,58.036 c 0,-9.151 -3.99,-15.412 -10.942,-15.412 v 0 -0.45 c 8.071,0 11.392,7.709 11.392,15.862 v 0 z" /></clipPath><linearGradient
       id="linearGradient536"
       spreadMethod="pad"
       gradientTransform="matrix(-11.368018,-15.878679,-15.878679,11.368018,65.551407,56.904491)"
       gradientUnits="userSpaceOnUse"
       y2="0"
       x2="1"
       y1="0"
       x1="0"><stop
         id="stop528"
         offset="0"
         style="stop-opacity:1;stop-color:#a25c0a" /><stop
         id="stop530"
         offset="0.05"
         style="stop-opacity:1;stop-color:#a25c0a" /><stop
         id="stop532"
         offset="0.95"
         style="stop-opacity:1;stop-color:#8f4a02" /><stop
         id="stop534"
         offset="1"
         style="stop-opacity:1;stop-color:#8f4a02" /></linearGradient><clipPath
       id="clipPath546"
       clipPathUnits="userSpaceOnUse"><path
         id="path544"
         d="m 43.045,70.855 0.45,-0.245 c 2.272,1.466 5.027,2.227 8.443,2.227 v 0 0.451 c -3.472,0 -6.49,-0.795 -8.893,-2.433" /></clipPath><linearGradient
       id="linearGradient560"
       spreadMethod="pad"
       gradientTransform="matrix(-8.92449,-2.3080301,-2.3080301,8.92449,51.918693,73.361992)"
       gradientUnits="userSpaceOnUse"
       y2="0"
       x2="1"
       y1="0"
       x1="0"><stop
         id="stop552"
         offset="0"
         style="stop-opacity:1;stop-color:#ffdd00" /><stop
         id="stop554"
         offset="0.05"
         style="stop-opacity:1;stop-color:#ffdd00" /><stop
         id="stop556"
         offset="0.95"
         style="stop-opacity:1;stop-color:#eea616" /><stop
         id="stop558"
         offset="1"
         style="stop-opacity:1;stop-color:#eea616" /></linearGradient><clipPath
       id="clipPath570"
       clipPathUnits="userSpaceOnUse"><path
         id="path568"
         d="m 51.938,72.837 c 7.476,0 11.584,-5.671 11.584,-14.801 v 0 h 0.45 c 0,8.076 -3.38,15.252 -12.034,15.252 v 0 z" /></clipPath><linearGradient
       id="linearGradient584"
       spreadMethod="pad"
       gradientTransform="matrix(11.987775,-15.288576,-15.288576,-11.987775,53.582584,74.577225)"
       gradientUnits="userSpaceOnUse"
       y2="0"
       x2="1"
       y1="0"
       x1="0"><stop
         id="stop576"
         offset="0"
         style="stop-opacity:1;stop-color:#ffdd00" /><stop
         id="stop578"
         offset="0.0530496"
         style="stop-opacity:1;stop-color:#ffdd00" /><stop
         id="stop580"
         offset="0.95"
         style="stop-opacity:1;stop-color:#a25c0a" /><stop
         id="stop582"
         offset="1"
         style="stop-opacity:1;stop-color:#a25c0a" /></linearGradient><clipPath
       id="clipPath594"
       clipPathUnits="userSpaceOnUse"><path
         id="path592"
         d="M 0,115 H 102 V 0 H 0 Z" /></clipPath><clipPath
       id="clipPath634"
       clipPathUnits="userSpaceOnUse"><path
         id="path632"
         d="m 21.055,52.516 c 0,-6.629 3.108,-10.45 9.79,-10.45 v 0 0.451 c -6.198,0 -9.34,3.362 -9.34,9.999 v 0 z" /></clipPath><linearGradient
       id="linearGradient648"
       spreadMethod="pad"
       gradientTransform="matrix(9.7472239,-10.489262,-10.489262,-9.7472239,19.90675,51.449226)"
       gradientUnits="userSpaceOnUse"
       y2="0"
       x2="1"
       y1="0"
       x1="0"><stop
         id="stop640"
         offset="0"
         style="stop-opacity:1;stop-color:#d89016" /><stop
         id="stop642"
         offset="0.05"
         style="stop-opacity:1;stop-color:#d89016" /><stop
         id="stop644"
         offset="0.95"
         style="stop-opacity:1;stop-color:#8f4a02" /><stop
         id="stop646"
         offset="1"
         style="stop-opacity:1;stop-color:#8f4a02" /></linearGradient><clipPath
       id="clipPath658"
       clipPathUnits="userSpaceOnUse"><path
         id="path656"
         d="m 30.845,42.517 v -0.451 c 3.999,0 7.232,0.924 9.886,2.728 v 0 l -0.45,0.237 c -2.392,-1.624 -5.603,-2.514 -9.436,-2.514" /></clipPath><linearGradient
       id="linearGradient672"
       spreadMethod="pad"
       gradientTransform="matrix(-9.9280844,-2.5675774,-2.5675774,9.9280844,40.797009,44.54063)"
       gradientUnits="userSpaceOnUse"
       y2="0"
       x2="1"
       y1="0"
       x1="0"><stop
         id="stop664"
         offset="0"
         style="stop-opacity:1;stop-color:#a25c0a" /><stop
         id="stop666"
         offset="0.05"
         style="stop-opacity:1;stop-color:#a25c0a" /><stop
         id="stop668"
         offset="0.95"
         style="stop-opacity:1;stop-color:#8f4a02" /><stop
         id="stop670"
         offset="1"
         style="stop-opacity:1;stop-color:#8f4a02" /></linearGradient><clipPath
       id="clipPath682"
       clipPathUnits="userSpaceOnUse"><path
         id="path680"
         d="m 31.066,48.281 v -0.45 c 1.271,0 2.282,0.297 2.963,0.765 v 0 l -0.45,0.249 C 32.943,48.48 32.062,48.281 31.066,48.281" /></clipPath><linearGradient
       id="linearGradient696"
       spreadMethod="pad"
       gradientTransform="matrix(2.9715273,0.7298771,0.7298771,-2.9715273,31.038704,47.943199)"
       gradientUnits="userSpaceOnUse"
       y2="0"
       x2="1"
       y1="0"
       x1="0"><stop
         id="stop688"
         offset="0"
         style="stop-opacity:1;stop-color:#ffd400" /><stop
         id="stop690"
         offset="0.05"
         style="stop-opacity:1;stop-color:#ffd400" /><stop
         id="stop692"
         offset="0.95"
         style="stop-opacity:1;stop-color:#ffc20e" /><stop
         id="stop694"
         offset="1"
         style="stop-opacity:1;stop-color:#ffc20e" /></linearGradient><clipPath
       id="clipPath706"
       clipPathUnits="userSpaceOnUse"><path
         id="path704"
         d="m 27.765,52.239 c 0,-1.779 0.43,-4.408 3.301,-4.408 v 0 0.45 c -2.208,0 -2.851,1.779 -2.851,3.958 v 0 z" /></clipPath><linearGradient
       id="linearGradient720"
       spreadMethod="pad"
       gradientTransform="matrix(-3.2518146,4.4430408,4.4430408,3.2518146,30.652573,47.528336)"
       gradientUnits="userSpaceOnUse"
       y2="0"
       x2="1"
       y1="0"
       x1="0"><stop
         id="stop712"
         offset="0"
         style="stop-opacity:1;stop-color:#ffd400" /><stop
         id="stop714"
         offset="0.05"
         style="stop-opacity:1;stop-color:#ffd400" /><stop
         id="stop716"
         offset="0.95"
         style="stop-opacity:1;stop-color:#cc7b16" /><stop
         id="stop718"
         offset="1"
         style="stop-opacity:1;stop-color:#cc7b16" /></linearGradient><clipPath
       id="clipPath730"
       clipPathUnits="userSpaceOnUse"><path
         id="path728"
         d="M 0,115 H 102 V 0 H 0 Z" /></clipPath><clipPath
       id="clipPath750"
       clipPathUnits="userSpaceOnUse"><path
         id="path748"
         d="m 73.346,72.838 c -4.121,-0.12 -8.431,-3.102 -8.404,-8.163 v 0 c 0.009,-3.331 0.937,-5.824 6.102,-8.853 v 0 c 2.754,-1.619 3.865,-2.686 3.912,-4.653 v 0 c 0.054,-2.184 -1.458,-3.5 -3.756,-3.49 v 0 c -1.997,0.016 -4.388,1.124 -5.986,2.549 v 0 -5.766 c 1.961,-1.171 4.409,-1.945 6.885,-1.945 v 0 c 6.188,0 8.949,4.374 9.068,8.379 v 0 c 0.12,3.653 -0.892,6.418 -6.123,9.493 v 0 c -2.337,1.37 -4.182,2.27 -4.12,4.55 v 0 c 0.061,2.227 1.909,3.007 3.683,2.992 v 0 c 2.189,-0.021 4.306,-1.234 5.611,-2.574 v 0 5.447 c -1.058,0.813 -3.254,2.04 -6.479,2.04 v 0 c -0.129,0 -0.261,-0.002 -0.393,-0.006 M 43.495,70.61 V 29.791 h 6.267 V 42.98 c 0.625,-0.184 1.533,-0.356 2.818,-0.356 v 0 c 6.952,0 10.942,6.261 10.942,15.412 v 0 c 0,9.13 -4.108,14.802 -11.584,14.802 v 0 c -3.416,0 -6.171,-0.761 -8.443,-2.228 m 6.267,-22.511 v 19.244 c 0.508,0.251 1.369,0.451 2.218,0.451 v 0 c 3.635,0 5.14,-2.901 5.14,-9.918 v 0 c 0,-6.847 -1.72,-10.154 -5.326,-10.154 v 0 c -0.849,0 -1.584,0.209 -2.032,0.377 M 34.029,72.203 V 48.596 c -0.681,-0.468 -1.692,-0.765 -2.963,-0.765 v 0 c -2.871,0 -3.3,2.63 -3.3,4.408 v 0 19.964 H 21.505 V 52.516 c 0,-6.637 3.142,-9.999 9.34,-9.999 v 0 c 3.833,0 7.044,0.89 9.436,2.515 v 0 27.171 z" /></clipPath><radialGradient
       id="radialGradient762"
       spreadMethod="pad"
       gradientTransform="matrix(0,-119.375,-71.625,0,26,85.48877)"
       gradientUnits="userSpaceOnUse"
       r="1"
       cy="0"
       cx="0"
       fy="0"
       fx="0"><stop
         id="stop756"
         offset="0"
         style="stop-opacity:1;stop-color:#ffdc00" /><stop
         id="stop758"
         offset="0.35"
         style="stop-opacity:1;stop-color:#ffbe00" /><stop
         id="stop760"
         offset="1"
         style="stop-opacity:1;stop-color:#c86e14" /></radialGradient></defs><g
     transform="matrix(1.3333333,0,0,-1.3333333,0,153.33333)"
     id="g10"><g
       id="g12"><g
         clip-path="url(#clipPath18)"
         id="g14"><g
           transform="translate(51,14.1357)"
           id="g20"><path
             id="path22"
             style="fill:#330000;fill-opacity:1;fill-rule:nonzero;stroke:none"
             d="m 0,0 c -2.545,1.109 -20.853,9.165 -26.637,13.906 -6.452,5.289 -9.863,12.88 -9.863,21.952 V 78.54 c 10.452,5.51 22.393,8.189 36.5,8.189 14.107,0 26.048,-2.679 36.5,-8.189 V 35.858 C 36.5,26.787 33.089,19.196 26.637,13.906 20.853,9.165 2.545,1.109 0,0" /></g></g></g><g
       id="g24"><g
         clip-path="url(#clipPath30)"
         id="g26"><g
           id="g32"><g
             id="g34"><path
               id="path44"
               style="fill:url(#radialGradient42);stroke:none"
               d="M 15,92.375 V 49.994 C 15,41.08 18.347,33.62 24.68,28.428 v 0 C 30.474,23.679 48.885,15.601 51,14.681 v 0 c 2.114,0.92 20.527,8.998 26.32,13.747 v 0 C 83.653,33.62 87,41.08 87,49.994 v 0 42.381 c -10.002,5.302 -22.114,7.989 -36,7.989 v 0 c -13.887,0 -25.998,-2.687 -36,-7.989" /></g></g></g></g><g
       id="g46"><g
         clip-path="url(#clipPath52)"
         id="g48"><g
           transform="translate(75.0488,20.7251)"
           id="g54"><path
             id="path56"
             style="fill:#c86e14;fill-opacity:1;fill-rule:nonzero;stroke:none"
             d="m 0,0 c -1.665,0 -3.02,-1.364 -3.02,-3.028 0,-1.666 1.355,-3.018 3.02,-3.018 1.675,0 3.026,1.352 3.026,3.018 C 3.026,-1.364 1.675,0 0,0 m 2.495,-3.028 c 0,-1.369 -1.114,-2.485 -2.493,-2.485 -1.372,0 -2.488,1.116 -2.488,2.485 0,1.372 1.116,2.495 2.488,2.495 1.379,0 2.493,-1.123 2.493,-2.495 m -2.597,1.312 c 0.564,0 0.638,-0.277 0.638,-0.517 0,-0.346 -0.148,-0.577 -0.859,-0.577 h -0.082 v 1.094 z m -0.967,0.536 v -3.676 h 0.664 v 1.534 h 0.094 c 0.05,-0.074 0.999,-1.534 0.999,-1.534 h 0.804 c 0,0 -1.009,1.474 -1.107,1.619 0.486,0.115 0.814,0.467 0.814,0.977 0,0.522 -0.322,1.08 -1.224,1.08 z" /></g></g></g><g
       id="g58"><g
         clip-path="url(#clipPath64)"
         id="g60"><g
           id="g66"><g
             id="g68"><path
               id="path80"
               style="fill:url(#radialGradient78);stroke:none"
               d="M 18.308,74.236 V 49.992 c 0,-7.894 2.92,-14.489 8.467,-19.009 v 0 C 31.675,26.991 46.749,20.17 51,18.294 v 0 c 4.196,1.848 19.233,8.584 24.217,12.689 v 0 c 5.584,4.599 8.475,11.04 8.475,19.009 v 0 41.491 c -4.446,0.413 -9.064,0.685 -13.769,0.685 v 0 c -17.448,0 -36.152,-3.75 -51.615,-17.932 M 74.956,51.169 c -0.047,1.966 -1.158,3.034 -3.912,4.653 v 0 c -5.165,3.029 -6.093,5.522 -6.102,8.853 v 0 c -0.027,5.061 4.283,8.043 8.404,8.162 v 0 c 3.439,0.106 5.771,-1.187 6.872,-2.033 v 0 -5.447 c -1.305,1.34 -3.422,2.553 -5.611,2.574 v 0 c -1.774,0.015 -3.622,-0.765 -3.683,-2.992 v 0 c -0.062,-2.28 1.783,-3.18 4.12,-4.55 v 0 c 5.231,-3.076 6.243,-5.84 6.123,-9.493 v 0 c -0.119,-4.005 -2.88,-8.379 -9.068,-8.379 v 0 c -2.476,0 -4.924,0.774 -6.886,1.945 v 0 5.766 c 1.599,-1.425 3.99,-2.533 5.987,-2.549 v 0 c 0.009,0 0.017,0 0.026,0 v 0 c 2.283,0 3.783,1.314 3.73,3.49 M 43.495,70.61 c 2.272,1.466 5.027,2.227 8.443,2.227 v 0 c 7.476,0 11.584,-5.671 11.584,-14.801 v 0 c 0,-9.151 -3.99,-15.412 -10.942,-15.412 v 0 c -1.285,0 -2.193,0.171 -2.819,0.356 v 0 -13.189 H 43.495 Z M 34.029,48.596 v 23.607 h 6.252 V 45.031 c -2.392,-1.624 -5.603,-2.514 -9.436,-2.514 v 0 c -6.198,0 -9.34,3.362 -9.34,9.999 v 0 19.687 h 6.26 V 52.239 c 0,-1.779 0.43,-4.408 3.301,-4.408 v 0 c 1.271,0 2.282,0.297 2.963,0.765 M 49.761,67.343 V 48.099 c 0.449,-0.168 1.184,-0.377 2.033,-0.377 v 0 c 3.606,0 5.326,3.307 5.326,10.154 v 0 c 0,7.016 -1.505,9.918 -5.14,9.918 v 0 c -0.849,0 -1.71,-0.2 -2.219,-0.451" /></g></g></g></g><g
       id="g82"><g
         clip-path="url(#clipPath88)"
         id="g84"><g
           id="g90"><g
             id="g92"><path
               id="path104"
               style="fill:url(#linearGradient102);stroke:none"
               d="m 18.308,49.992 c 0,-7.894 2.92,-14.489 8.467,-19.009 v 0 C 31.675,26.991 46.749,20.17 51,18.294 v 0 0.492 c -3.529,1.561 -18.982,8.506 -23.941,12.546 v 0 c -5.43,4.425 -8.3,10.878 -8.3,18.66 v 0 z" /></g></g></g></g><g
       id="g106"><g
         clip-path="url(#clipPath112)"
         id="g108"><g
           id="g114"><g
             id="g116"><path
               id="path124"
               style="fill:url(#linearGradient122);stroke:none"
               d="m 83.242,49.992 c 0,-7.84 -2.796,-14.119 -8.311,-18.661 v 0 C 70.135,27.382 55.638,20.832 51,18.786 v 0 -0.492 c 4.196,1.848 19.233,8.584 24.217,12.689 v 0 c 5.584,4.599 8.475,11.04 8.475,19.009 v 0 z" /></g></g></g></g><g
       id="g126"><g
         clip-path="url(#clipPath132)"
         id="g128"><g
           id="g134"><g
             id="g136"><path
               id="path146"
               style="fill:url(#linearGradient144);stroke:none"
               d="m 18.308,74.236 0.451,-0.199 c 13.048,11.897 29.786,17.681 51.164,17.681 v 0 c 4.174,0 8.535,-0.211 13.319,-0.645 v 0 l 0.45,0.41 c -4.446,0.413 -9.064,0.685 -13.769,0.685 v 0 c -17.448,0 -36.152,-3.75 -51.615,-17.932" /></g></g></g></g><g
       id="g148"><g
         clip-path="url(#clipPath154)"
         id="g150"><g
           id="g156"><g
             id="g158"><path
               id="path170"
               style="fill:url(#linearGradient168);stroke:none"
               d="m 56.67,57.876 c 0,-5.534 -1.091,-9.704 -4.876,-9.704 v 0 -0.45 c 3.606,0 5.326,3.307 5.326,10.154 v 0 z" /></g></g></g></g><g
       id="g172"><g
         clip-path="url(#clipPath178)"
         id="g174"><g
           id="g180"><g
             id="g182"><path
               id="path194"
               style="fill:url(#linearGradient192);stroke:none"
               d="m 49.761,48.099 c 0.449,-0.168 1.184,-0.377 2.033,-0.377 v 0 0.45 c -0.616,0 -1.168,0.119 -1.583,0.248 v 0 z" /></g></g></g></g><g
       id="g196"><g
         clip-path="url(#clipPath202)"
         id="g198"><g
           id="g204"><g
             id="g206"><path
               id="path218"
               style="fill:url(#linearGradient216);stroke:none"
               d="m 49.761,67.343 0.45,-0.297 c 0.437,0.161 1.087,0.298 1.769,0.298 v 0 0.45 c -0.849,0 -1.71,-0.2 -2.219,-0.451" /></g></g></g></g><g
       id="g220"><g
         clip-path="url(#clipPath226)"
         id="g222"><g
           id="g228"><g
             id="g230"><path
               id="path242"
               style="fill:url(#linearGradient240);stroke:none"
               d="m 51.98,67.344 c 3.693,0 4.69,-3.451 4.69,-9.468 v 0 h 0.45 c 0,7.016 -1.505,9.918 -5.14,9.918 v 0 z" /></g></g></g></g><g
       id="g244"><g
         clip-path="url(#clipPath250)"
         id="g246"><g
           id="g252"><g
             id="g254"><path
               id="path266"
               style="fill:url(#linearGradient264);stroke:none"
               d="m 64.492,64.673 0.45,0.002 c -0.027,5.061 4.283,8.043 8.404,8.162 v 0 l -0.014,0.451 c -4.554,-0.133 -8.867,-3.466 -8.84,-8.615" /></g></g></g></g><g
       id="g268"><g
         clip-path="url(#clipPath274)"
         id="g270"><g
           id="g276"><g
             id="g278"><path
               id="path290"
               style="fill:url(#linearGradient288);stroke:none"
               d="m 70.924,64.939 0.45,-0.013 c 0.016,0.602 0.294,2.555 3.172,2.555 v 0 l 0.061,0.45 c -0.017,0 -0.034,0 -0.051,0 v 0 c -1.758,0 -3.572,-0.786 -3.632,-2.992" /></g></g></g></g><g
       id="g292"><g
         clip-path="url(#clipPath298)"
         id="g294"><g
           id="g300"><g
             id="g302"><path
               id="path312"
               style="fill:url(#linearGradient310);stroke:none"
               d="m 74.546,67.481 c 2.589,0 4.802,-1.684 6.122,-3.232 v 0 l -0.45,1.108 c -1.305,1.34 -3.422,2.553 -5.611,2.574 v 0 z" /></g></g></g></g><g
       id="g314"><g
         clip-path="url(#clipPath320)"
         id="g316"><g
           id="g322"><g
             id="g324"><path
               id="path336"
               style="fill:url(#linearGradient334);stroke:none"
               d="m 73.332,73.288 0.014,-0.451 c 3.439,0.106 5.771,-1.187 6.872,-2.033 v 0 l 0.45,0.221 c -0.944,0.766 -3.347,2.269 -6.943,2.269 v 0 c -0.129,0 -0.261,-0.002 -0.393,-0.006" /></g></g></g></g><g
       id="g338"><g
         clip-path="url(#clipPath344)"
         id="g340"><g
           id="g346"><g
             id="g348"><path
               id="path360"
               style="fill:url(#linearGradient358);stroke:none"
               d="m 72.099,42.517 v -0.451 c 5.676,0 9.367,3.781 9.518,8.815 v 0 l -0.45,0.015 c -0.119,-4.005 -2.88,-8.379 -9.068,-8.379" /></g></g></g></g><g
       id="g362"><g
         clip-path="url(#clipPath368)"
         id="g364"><g
           id="g370"><g
             id="g372"><path
               id="path382"
               style="fill:url(#linearGradient380);stroke:none"
               d="m 64.764,44.206 c 2.241,-1.338 4.645,-2.14 7.335,-2.14 v 0 0.451 c -2.476,0 -4.924,0.774 -6.886,1.945 v 0 z" /></g></g></g></g><g
       id="g384"><g
         clip-path="url(#clipPath390)"
         id="g386"><g
           id="g392"><g
             id="g394"><path
               id="path404"
               style="fill:url(#linearGradient402);stroke:none"
               d="m 65.213,50.228 c 1.599,-1.425 3.99,-2.533 5.987,-2.549 v 0 l 0.004,0.451 c -2.229,0.016 -4.806,1.451 -6.44,3.102 v 0 z" /></g></g></g></g><g
       id="g406"><g
         clip-path="url(#clipPath412)"
         id="g408"><g
           id="g414"><g
             id="g416"><path
               id="path428"
               style="fill:url(#linearGradient426);stroke:none"
               d="M 74.506,51.158 C 74.555,49.16 73.158,48.116 71.204,48.13 v 0 L 71.2,47.679 c 2.298,-0.01 3.81,1.306 3.756,3.49 v 0 z" /></g></g></g></g><g
       id="g430"><g
         clip-path="url(#clipPath436)"
         id="g432"><g
           id="g438"><g
             id="g440"><path
               id="path452"
               style="fill:url(#linearGradient450);stroke:none"
               d="m 64.492,64.673 c 0.01,-3.508 1.048,-6.145 6.324,-9.239 v 0 c 2.823,-1.659 3.651,-2.618 3.69,-4.276 v 0 l 0.45,0.011 c -0.047,1.966 -1.158,3.034 -3.912,4.653 v 0 c -5.165,3.029 -6.093,5.522 -6.102,8.853 v 0 z" /></g></g></g></g><g
       id="g454"><g
         clip-path="url(#clipPath460)"
         id="g456"><g
           id="g462"><g
             id="g464"><path
               id="path478"
               style="fill:url(#linearGradient476);stroke:none"
               d="m 75.044,60.389 c 5.231,-3.076 6.243,-5.84 6.123,-9.493 v 0 l 0.45,-0.015 c 0.123,3.735 -0.896,6.693 -6.346,9.896 v 0 c -2.212,1.343 -3.953,2.075 -3.897,4.149 v 0 l -0.45,0.013 c -0.062,-2.28 1.783,-3.18 4.12,-4.55" /></g></g></g></g><g
       id="g480"><g
         clip-path="url(#clipPath486)"
         id="g482"><g
           transform="translate(49.7612,29.791)"
           id="g488"><path
             id="path490"
             style="fill:#8f4a02;fill-opacity:1;fill-rule:nonzero;stroke:none"
             d="m 0,0 h -6.266 l -0.45,-0.45 H 0.45 Z" /></g></g></g><g
       id="g492"><g
         clip-path="url(#clipPath498)"
         id="g494"><g
           id="g500"><g
             id="g502"><path
               id="path514"
               style="fill:url(#linearGradient512);stroke:none"
               d="m 50.211,42.403 c 0.708,-0.152 1.502,-0.229 2.369,-0.229 v 0 0.45 c -1.285,0 -2.193,0.171 -2.819,0.356 v 0 z" /></g></g></g></g><g
       id="g516"><g
         clip-path="url(#clipPath522)"
         id="g518"><g
           id="g524"><g
             id="g526"><path
               id="path538"
               style="fill:url(#linearGradient536);stroke:none"
               d="m 63.522,58.036 c 0,-9.151 -3.99,-15.412 -10.942,-15.412 v 0 -0.45 c 8.071,0 11.392,7.709 11.392,15.862 v 0 z" /></g></g></g></g><g
       id="g540"><g
         clip-path="url(#clipPath546)"
         id="g542"><g
           id="g548"><g
             id="g550"><path
               id="path562"
               style="fill:url(#linearGradient560);stroke:none"
               d="m 43.045,70.855 0.45,-0.245 c 2.272,1.466 5.027,2.227 8.443,2.227 v 0 0.451 c -3.472,0 -6.49,-0.795 -8.893,-2.433" /></g></g></g></g><g
       id="g564"><g
         clip-path="url(#clipPath570)"
         id="g566"><g
           id="g572"><g
             id="g574"><path
               id="path586"
               style="fill:url(#linearGradient584);stroke:none"
               d="m 51.938,72.837 c 7.476,0 11.584,-5.671 11.584,-14.801 v 0 h 0.45 c 0,8.076 -3.38,15.252 -12.034,15.252 v 0 z" /></g></g></g></g><g
       id="g588"><g
         clip-path="url(#clipPath594)"
         id="g590"><g
           transform="translate(40.2817,72.2036)"
           id="g596"><path
             id="path598"
             style="fill:#fdb913;fill-opacity:1;fill-rule:nonzero;stroke:none"
             d="M 0,0 H -6.252 L -6.703,0.45 H 0.45 Z m -12.517,0 h -6.26 l -0.45,0.45 h 7.161 z" /></g><g
           transform="translate(18.3081,49.9927)"
           id="g600"><path
             id="path602"
             style="fill:#cc7b16;fill-opacity:1;fill-rule:nonzero;stroke:none"
             d="M 0,0 V 24.243 L 0.45,24.044 V 0 Z" /></g><g
           transform="translate(80.668,64.2495)"
           id="g604"><path
             id="path606"
             style="fill:#a25c0a;fill-opacity:1;fill-rule:nonzero;stroke:none"
             d="M 0,0 V 6.776 L -0.45,6.554 V 1.107 Z" /></g><g
           transform="translate(28.2153,52.2383)"
           id="g608"><path
             id="path610"
             style="fill:#cc7b16;fill-opacity:1;fill-rule:nonzero;stroke:none"
             d="M 0,0 V 20.416 L -0.45,19.965 V 0 Z" /></g><g
           transform="translate(83.2417,49.9927)"
           id="g612"><path
             id="path614"
             style="fill:#d99814;fill-opacity:1;fill-rule:nonzero;stroke:none"
             d="m 0,0 v 41.08 l 0.45,0.41 V 0 Z" /></g><g
           transform="translate(64.7637,51.2314)"
           id="g616"><path
             id="path618"
             style="fill:#b76e11;fill-opacity:1;fill-rule:nonzero;stroke:none"
             d="m 0,0 v -7.025 l 0.45,0.255 v 5.767 z" /></g><g
           transform="translate(34.0293,48.5962)"
           id="g620"><path
             id="path622"
             style="fill:#d89016;fill-opacity:1;fill-rule:nonzero;stroke:none"
             d="m 0,0 v 23.607 l -0.45,0.451 V 0.249 Z" /></g><g
           transform="translate(21.5049,52.5161)"
           id="g624"><path
             id="path626"
             style="fill:#d89016;fill-opacity:1;fill-rule:nonzero;stroke:none"
             d="m 0,0 v 19.687 l -0.45,0.451 V 0 Z" /></g></g></g><g
       id="g628"><g
         clip-path="url(#clipPath634)"
         id="g630"><g
           id="g636"><g
             id="g638"><path
               id="path650"
               style="fill:url(#linearGradient648);stroke:none"
               d="m 21.055,52.516 c 0,-6.629 3.108,-10.45 9.79,-10.45 v 0 0.451 c -6.198,0 -9.34,3.362 -9.34,9.999 v 0 z" /></g></g></g></g><g
       id="g652"><g
         clip-path="url(#clipPath658)"
         id="g654"><g
           id="g660"><g
             id="g662"><path
               id="path674"
               style="fill:url(#linearGradient672);stroke:none"
               d="m 30.845,42.517 v -0.451 c 3.999,0 7.232,0.924 9.886,2.728 v 0 l -0.45,0.237 c -2.392,-1.624 -5.603,-2.514 -9.436,-2.514" /></g></g></g></g><g
       id="g676"><g
         clip-path="url(#clipPath682)"
         id="g678"><g
           id="g684"><g
             id="g686"><path
               id="path698"
               style="fill:url(#linearGradient696);stroke:none"
               d="m 31.066,48.281 v -0.45 c 1.271,0 2.282,0.297 2.963,0.765 v 0 l -0.45,0.249 C 32.943,48.48 32.062,48.281 31.066,48.281" /></g></g></g></g><g
       id="g700"><g
         clip-path="url(#clipPath706)"
         id="g702"><g
           id="g708"><g
             id="g710"><path
               id="path722"
               style="fill:url(#linearGradient720);stroke:none"
               d="m 27.765,52.239 c 0,-1.779 0.43,-4.408 3.301,-4.408 v 0 0.45 c -2.208,0 -2.851,1.779 -2.851,3.958 v 0 z" /></g></g></g></g><g
       id="g724"><g
         clip-path="url(#clipPath730)"
         id="g726"><g
           transform="translate(43.0454,70.8555)"
           id="g732"><path
             id="path734"
             style="fill:#cc7b16;fill-opacity:1;fill-rule:nonzero;stroke:none"
             d="m 0,0 v -41.514 l 0.45,0.45 v 40.819 z" /></g><g
           transform="translate(50.2114,42.4023)"
           id="g736"><path
             id="path738"
             style="fill:#b76e11;fill-opacity:1;fill-rule:nonzero;stroke:none"
             d="m 0,0 v -13.061 l -0.45,0.45 V 0.578 Z m 0,6.018 v 18.626 l -0.45,0.297 V 5.697 Z" /></g><g
           transform="translate(40.7314,44.7935)"
           id="g740"><path
             id="path742"
             style="fill:#c27514;fill-opacity:1;fill-rule:nonzero;stroke:none"
             d="M 0,0 V 27.86 L -0.45,27.41 V 0.238 Z" /></g></g></g><g
       id="g744"><g
         clip-path="url(#clipPath750)"
         id="g746"><g
           id="g752"><g
             id="g754"><path
               id="path764"
               style="fill:url(#radialGradient762);stroke:none"
               d="m 73.346,72.838 c -4.121,-0.12 -8.431,-3.102 -8.404,-8.163 v 0 c 0.009,-3.331 0.937,-5.824 6.102,-8.853 v 0 c 2.754,-1.619 3.865,-2.686 3.912,-4.653 v 0 c 0.054,-2.184 -1.458,-3.5 -3.756,-3.49 v 0 c -1.997,0.016 -4.388,1.124 -5.986,2.549 v 0 -5.766 c 1.961,-1.171 4.409,-1.945 6.885,-1.945 v 0 c 6.188,0 8.949,4.374 9.068,8.379 v 0 c 0.12,3.653 -0.892,6.418 -6.123,9.493 v 0 c -2.337,1.37 -4.182,2.27 -4.12,4.55 v 0 c 0.061,2.227 1.909,3.007 3.683,2.992 v 0 c 2.189,-0.021 4.306,-1.234 5.611,-2.574 v 0 5.447 c -1.058,0.813 -3.254,2.04 -6.479,2.04 v 0 c -0.129,0 -0.261,-0.002 -0.393,-0.006 M 43.495,70.61 V 29.791 h 6.267 V 42.98 c 0.625,-0.184 1.533,-0.356 2.818,-0.356 v 0 c 6.952,0 10.942,6.261 10.942,15.412 v 0 c 0,9.13 -4.108,14.802 -11.584,14.802 v 0 c -3.416,0 -6.171,-0.761 -8.443,-2.228 m 6.267,-22.511 v 19.244 c 0.508,0.251 1.369,0.451 2.218,0.451 v 0 c 3.635,0 5.14,-2.901 5.14,-9.918 v 0 c 0,-6.847 -1.72,-10.154 -5.326,-10.154 v 0 c -0.849,0 -1.584,0.209 -2.032,0.377 M 34.029,72.203 V 48.596 c -0.681,-0.468 -1.692,-0.765 -2.963,-0.765 v 0 c -2.871,0 -3.3,2.63 -3.3,4.408 v 0 19.964 H 21.505 V 52.516 c 0,-6.637 3.142,-9.999 9.34,-9.999 v 0 c 3.833,0 7.044,0.89 9.436,2.515 v 0 27.171 z" /></g></g></g></g></g></svg>